<svg width="340" height="1789" viewBox="0 0 340 1789" fill="none" xmlns="http://www.w3.org/2000/svg">
<g clip-path="url(#clip0_100_137)">
<path d="M339.29 0H0.420044V1788.18H339.29V0Z" fill="#9D0164"/>
<path d="M339.82 1140.79C337.62 1137.38 333.93 1132.81 328.12 1129.31C316.93 1122.56 300.51 1121.35 290.87 1128.83C285.79 1132.78 286.11 1136.4 279.88 1139.34C275.19 1141.55 267.67 1142.96 263.64 1139.52C263.46 1139.36 263.64 1139.51 258.98 1133.61C256.93 1131.02 256.25 1130.18 255.04 1129.13C254.15 1128.36 252.41 1126.89 249.85 1125.91C249.24 1125.67 246.48 1124.66 241.79 1125.01C236.56 1125.4 236.31 1126.95 232.66 1127.16C227.39 1127.47 220.95 1124.67 219.59 1120.35C218.76 1117.72 220.47 1116.61 220.31 1113.01C220.08 1108 216.51 1104.4 214.22 1102.08C212.74 1100.59 206.8 1094.92 192.55 1091.87C179.24 1089.03 165.93 1089.26 162.64 1091.51C162.38 1091.69 160.83 1092.8 160.01 1092.29C159.37 1091.89 159.76 1090.86 159.29 1089.96C158.3 1088.07 154.87 1089.39 152.84 1088.17C148.9 1085.79 154.2 1076.11 149.97 1071.33C146.57 1067.5 140.55 1070.82 136.81 1066.76C133.49 1063.17 134.85 1056.92 135.2 1055.3C137.93 1042.68 162.53 1043.21 211.29 1030.58C218.99 1028.59 222.92 1027.66 225.8 1026.64C233.3 1023.97 245.84 1018.47 273.71 995.18C289.48 982 288.55 981.18 293.77 978.7C309.38 971.28 326.52 974.39 339.02 978.46L339.83 1140.77L339.82 1140.79Z" fill="#E9042D"/>
<path d="M0.51001 1054.96C4.66001 1050.51 15.25 1040.41 30.48 1038.6C34.42 1038.13 40.5 1037.49 46.48 1040.63C51.57 1043.31 53.18 1046.93 56.99 1051.38C64.65 1060.32 74.04 1064.19 78 1065.83C92.71 1071.9 113.96 1071.76 120.15 1062.37C120.86 1061.3 120.56 1061.34 125.52 1051.38C128.59 1045.24 129.51 1043.61 131.37 1041.95C133.25 1040.28 135.01 1039.53 141.52 1037.53C154.57 1033.52 155.93 1033.91 157.28 1032.16C160.87 1027.48 156.74 1017.45 152.27 1011.5C143.23 999.51 126.07 995.24 115.37 997.17C114.07 997.41 111.77 997.93 108.33 998.13C106.62 998.23 98.22 998.7 91.85 995.86C86.4 993.43 84.59 989.53 79.67 982.73C72.08 972.23 64.64 961.93 54.24 957.66C43.68 953.32 33.22 956.49 29.76 957.54C9.46001 963.69 1.58001 983.38 0.51001 986.2V1054.98V1054.96Z" fill="#E9042D"/>
<path d="M0.329956 796.41C4.10996 791.5 12.37 782.45 25.19 779.75C44.82 775.62 63.41 788.86 64.41 789.6C68.54 792.62 69.19 794.14 72.29 794.79C82.29 796.91 93.32 784.92 100.95 784.4C101.51 784.36 103.26 784.3 104.89 783.15C106.43 782.06 106.77 780.75 107.76 779.21C109.51 776.48 111.01 776.59 113.85 774.02C115.12 772.86 118.75 769.57 119.4 765.6C119.99 762.02 117.83 759.87 115.28 755.03C111.67 748.18 109.94 741.02 109.73 736.76C109.32 728.51 114.23 724.06 117.61 717.42C129.65 693.75 115.48 655.29 99.34 650.26C96.73 649.44 93.05 649.19 87.88 646.32C85.28 644.88 81.73 642.46 76.24 635.93C67.03 624.99 61.95 613.92 60.3 610.14C56.2 600.77 57.03 599.35 53.85 595.81C47.06 588.25 36.7 587.38 32.54 587.03C16.54 585.7 4.40996 594.17 0.429956 597.24L0.339956 796.4L0.329956 796.41Z" fill="#E9042D"/>
<path d="M339.28 333.47C337.08 332.2 332.77 330.09 327 329.89C325.38 329.83 321.66 329.73 317.69 331.32C311.98 333.6 309.01 338.08 306.94 340.81C306.94 340.81 297.33 353.52 279.54 361.41C277.4 362.36 272.01 364.57 258.41 365.89C233.58 368.3 225.67 363.45 196.8 364.1C195.49 364.13 170.8 364.87 163.13 374.31C162.35 375.27 160.13 378 160.8 380.76C161.59 384.01 165.95 385.49 168.32 386.31C198.53 396.72 204.39 401.46 207.54 404.94C209.12 406.68 209.53 407.56 211.66 409.6C217.68 415.36 222.81 416.39 227.6 419.27C234.44 423.38 231.52 425.81 240.67 435.03C250.04 444.47 255.52 444.38 262.16 454.19C264.5 457.66 263.89 457.78 266.64 461.71C272.44 470.03 276.24 471.04 279.71 477.11C282.05 481.2 280.69 481.38 283.47 490.36C286 498.54 289.82 510.87 295.11 511.14C298.74 511.32 299.89 505.68 307.83 503.26C307.83 503.26 310.49 502.45 313.56 502.36C321.53 502.14 331.97 512.41 339.27 528.15V333.46L339.28 333.47Z" fill="#E9042D"/>
<path d="M339.64 1428.12C298.11 1407.89 278.51 1408.42 268.36 1413.43C266.36 1414.42 258.83 1418.5 247.94 1420.24C241.16 1421.32 233.26 1422.58 225.01 1419.17C210.4 1413.12 205.46 1396.86 205.13 1395.71C202.06 1385.05 206.62 1381.63 203.34 1365.62C202.69 1362.45 201.47 1356.68 198.33 1350.04C195.63 1344.35 191.06 1337.02 181.32 1328.37C178.24 1325.64 170.39 1318.99 138.16 1303.12C120.16 1294.26 117.27 1293.7 112.19 1288.43C100.85 1276.67 96.97 1262.46 96.97 1262.46C94.5 1253.42 94.88 1245.46 88.01 1239C85.78 1236.9 85.2 1237.23 82.28 1234.88C73.44 1227.76 70.57 1218.08 69.21 1214.82C63.07 1200.15 42.25 1192.05 26.05 1192.97C21.64 1193.22 11.61 1194.51 0.619995 1203V1173.27C35.57 1178.34 59.23 1174.23 74.59 1169.33C91 1164.1 107.88 1160.47 124.38 1155.54C130.98 1153.57 136.33 1151.9 143.9 1152.14C150.22 1152.33 157.6 1153.84 177.57 1164.68C195.87 1174.61 194.75 1177.23 207.84 1183.13C219.28 1188.29 229.43 1192.7 240.44 1189.22C242.94 1188.43 247.41 1184.86 256.2 1177.58C269.75 1166.36 272.79 1162.36 283.07 1155.19C287.62 1152.02 291.08 1149.62 296.32 1147.13C303.01 1143.95 310.51 1140.38 320.14 1140.86C323.81 1141.04 331.39 1141.99 339.84 1147.67L339.66 1428.15L339.64 1428.12Z" fill="#FA4CD4"/>
<path d="M101.3 915.01C105.93 910.89 111.32 909.93 114.2 909.52C124.8 907.98 135.86 908.74 161.96 914.3C165.12 914.97 175.78 917.27 189.66 920.75C203.13 924.13 201.08 923.97 204.47 924.57C225.03 928.22 232.55 921.97 242.44 927.67C244.38 928.79 248.21 931.41 254.38 933.64C257.52 934.78 258.36 934.76 260.83 935.79C266.76 938.26 270.56 941.96 272.05 943.43C274.94 946.29 281.21 952.49 282.08 961.34C283.15 972.23 275.44 980.95 272.29 984.5C265.63 992.02 261.62 990.86 255.1 999.78C252.83 1002.88 251.61 1005.35 248.17 1007.42C244.09 1009.88 239.63 1010.12 235.75 1010.29C229.35 1010.57 229.18 1009.25 225 1009.57C220.53 1009.91 218.06 1011.62 206.61 1018.88C198.58 1023.97 194.55 1026.52 193.71 1026.76C183.47 1029.7 170.27 1025.03 166.49 1016.73C164.89 1013.22 166.56 1012.54 165.3 1008.61C161.35 996.32 139.76 986.74 126.37 991.18C124.66 991.75 121.51 993.06 119.92 991.66C117.38 989.42 120.72 981.98 120.88 981.63C123.44 976.04 126.46 975.57 128.52 972.08C133.41 963.79 127.84 946.94 117.77 941.75C113.09 939.34 109.67 940.6 102.25 936.26C98.73 934.2 96.1 932.61 95.09 929.57C92.81 922.74 100.96 915.3 101.3 915V915.01Z" fill="#FA4CD4"/>
<path d="M68.8 513.29C80.76 508.09 92.54 514.16 93.16 514.48C102.63 519.55 106.77 529.76 109.64 534.54C112.63 539.52 112.61 543.23 116.57 547.91C118.11 549.73 121.51 553.34 126.69 555.91C139.04 562.04 146.95 555.04 161.35 561.37C163.2 562.18 165.97 563.57 168.96 565.85C172.38 568.45 181.33 575.25 182.12 585.91C182.68 593.43 178.92 599.36 177.28 601.94C173.44 607.99 171.04 607.09 167.07 613.04C162.85 619.37 161.93 625.85 161.16 631.22C160.31 637.18 161.27 636.73 160.44 648.68C159.83 657.45 159.09 660.97 157.4 664.62C155.98 667.68 154.48 670.92 150.95 673.04C144.82 676.72 137.7 673.94 136.8 673.58C130.76 671.12 127.69 665.71 125.25 661.4C122 655.66 122.95 654.01 119.43 649.49C116.27 645.44 112.66 643.14 110.92 642.06C105.62 638.75 104.09 639.7 99.99 637.4C95.45 634.86 92.37 629.82 86.38 619.85C81.44 611.62 82.43 612.04 79.04 607.04C70.13 593.94 64.67 593.12 63.28 592.98C60.96 592.75 59.91 593.41 58.53 592.44C55.2 590.1 56.17 582.57 57.72 577.75C60.01 570.66 63.13 570.84 64.79 564.5C66.55 557.79 64.54 552.02 63.89 550.35C61.61 544.46 58.25 545.21 56.1 540.05C53.47 533.73 55.41 526.03 59.06 520.89C62.45 516.11 66.9 514.1 68.79 513.28L68.8 513.29Z" fill="#FA4CD4"/>
<path d="M0.420044 169.71C9.12004 159.42 15.38 157.59 19.67 158.13C22.55 158.49 25.36 160.02 28.86 158.61C31.77 157.43 34.16 154.63 34.83 151.57C35.41 148.95 34.37 147.77 33.16 143.21C32.63 141.23 30.96 134.76 31.73 127.81C32.18 123.76 32.51 120.76 34.72 118.02C39.15 112.51 47.5 112.62 49.76 112.65C55.99 112.73 56.83 115.04 63.37 114.68C66.52 114.51 71.02 114.26 73.4 111.22C75.48 108.55 74.08 106.1 74.59 100.71C75.14 94.91 77.72 87.79 82.23 84.23C86.69 80.72 92.23 81.34 98.47 81.84C127.45 84.16 123.94 79.87 144.44 83.15C157.33 85.22 166.87 88.22 174.65 90.67C181.88 92.95 178.85 92.35 198.53 99.51C219.21 107.03 225.5 108.77 231.6 115.39C233.11 117.03 234.44 118.79 238.29 122.91C243.68 128.69 247.93 132.61 250.47 134.97C250.47 134.97 260.43 144.24 271.25 155.15C281.01 164.99 285.71 170.51 292.98 172.22C294.7 172.63 298.98 173.64 303.13 171.62C305.38 170.53 306.83 168.91 307.91 167.68C312 163.02 311.12 159.96 313.88 158.61C316.06 157.54 318.49 158.52 322.84 160.28C323.94 160.73 326.28 161.74 332.03 165.65C335.02 167.68 337.48 169.51 339.29 170.9V0H0.420044V169.71Z" fill="#FA4CD4"/>
<path d="M58.53 125.53C63.6 124.18 67.71 125.09 72.62 126.25C76.18 127.09 85.48 129.65 95.19 137.23C100.78 141.6 109.28 148.24 112.98 159.44C115.47 166.99 113.97 171.09 118.23 182.84C119.87 187.36 120.71 189.67 122.53 192.51C128.47 201.79 134.84 201.04 143.78 209.23C151.45 216.25 159.36 228.32 155.72 235.14C154.41 237.59 151.99 238.64 150.71 239.2C143.07 242.51 133.95 237.11 129.22 232.63C124.61 228.28 126.26 226.79 121.46 221.41C119.93 219.69 113.19 212.48 102.59 209.71C91.86 206.91 84.55 210.59 81.93 206.37C80.68 204.35 81.3 201.82 82.05 198.73C83.64 192.22 87.2 190.83 88.74 186.19C90.96 179.48 86.76 172.47 85.4 170.19C80.33 161.72 70.64 157.17 62.47 156.58C56.8 156.16 55.24 157.91 51.72 156.22C46.16 153.56 42.28 145.49 44.08 138.19C46.4 128.77 56.84 125.98 58.53 125.53Z" fill="#FD52E9"/>
<path d="M0.420034 1544.11C13.28 1535.64 22.9 1534.85 29.43 1535.82C38.76 1537.2 45.18 1542.66 51.4 1539.16C53.73 1537.85 55.42 1534.87 58.8 1528.89C62.78 1521.86 62.78 1519.55 65.96 1514.56C66.59 1513.57 69.91 1508.47 74.8 1504.53C87.75 1494.1 105.71 1496.69 108.47 1497.13C114.93 1498.16 115.79 1499.72 128.29 1502.14C132.6 1502.98 136.81 1503.63 141.9 1503.81C150.9 1504.13 155.71 1504.3 158.62 1501.18C161.88 1497.68 160.88 1492 159.81 1485.9C159 1481.3 157.67 1473.67 151.45 1467.03C144.94 1460.08 136.88 1458.27 130.2 1456.76C121.67 1454.84 118.93 1456.16 113.01 1455.33C94.48 1452.74 82.16 1434.42 76.95 1426.67C69.84 1416.1 73.39 1416.43 60.95 1389.89C50.53 1367.66 45.18 1361.32 38.02 1356.93C34.34 1354.68 26.09 1349.62 16.05 1351.92C7.31003 1353.92 2.21003 1360.33 0.530034 1362.67L0.410034 1544.1L0.420034 1544.11Z" fill="#DA0148"/>
<path d="M0.59999 1161.79C23.22 1161.62 40.99 1161.7 52.06 1161.79C67.18 1161.91 97.59 1162.25 116.06 1151.76C125.37 1146.47 127.47 1140.8 128 1139.1C129.3 1134.95 127.83 1133.7 128.24 1126.2C128.66 1118.42 129.03 1111.54 133.49 1106.86C137.88 1102.26 142.28 1103.93 146.86 1098.02C148.09 1096.44 150.01 1093.96 150.2 1090.62C150.63 1083 141.71 1076.63 135.39 1074.14C128.42 1071.4 122 1072.36 118.43 1072.95C111.06 1074.15 110.46 1076.45 102.91 1078.44C99.89 1079.24 90.1 1081.69 79.75 1078.44C71.88 1075.97 66.98 1071.22 61.84 1066.26C51.93 1056.68 52.26 1051.51 44.41 1047.63C37.99 1044.46 31.79 1044.97 28.41 1045.24C12.63 1046.52 2.59999 1057.86 -0.0100098 1061L0.58999 1161.78L0.59999 1161.79Z" fill="#DA0148"/>
<path d="M339.28 748.59C326.78 743.99 318.22 745.43 313.83 746.44C304.83 748.52 297.64 753.41 291.92 757.31C290.57 758.23 287.2 760.79 280.46 765.91C272.76 771.75 268.22 775.34 261.65 775.58C259.83 775.65 260.15 775.37 257.89 775.4C251.02 775.49 246.67 778.05 241.41 780.41C234.7 783.42 228.22 786.33 219.92 786.86C215.51 787.14 214.59 786.5 207.2 786.86C201.3 787.15 197.62 787.77 194.84 788.11C194.84 788.11 182.7 789.59 169.23 787.04C159.67 785.22 150.28 783.44 142.54 775.94C130.15 763.92 130.58 745.59 130.72 739.76C130.83 735.09 130.92 731.24 132.51 726.51C133.27 724.26 134.15 722.42 134.84 719.17C135.69 715.13 135.54 712.16 135.56 710.75C135.66 701.67 142.91 693.26 144.05 691.94C150.17 684.85 156.02 684.43 162.5 676.54C164.58 674.01 166.05 671.53 166.26 671.17C166.26 671.17 168.85 666.77 170.2 662.21C172.9 653.09 167.5 648.63 168.95 640.54C169.69 636.43 173.93 632.07 182.38 623.53C195.23 610.54 197.89 611.23 200.65 604.9C204.73 595.52 202.99 584.6 202.62 582.51C201.65 576.96 200.34 576.32 200.11 571.05C199.96 567.49 200.73 563.18 202.26 554.57C202.76 551.75 203.28 549.14 203.87 546.51C203.87 546.51 204.72 542.72 205.48 539.88C206.76 535.13 213.58 524.85 226.26 517.31C240.28 508.98 263.82 502.61 274.8 511.22C276.1 512.24 280.25 515.84 286.8 518.92C291.22 521 293.49 522.03 296.47 521.61C299.33 521.21 300.51 519.81 307.04 517.67C307.04 517.67 308.88 517.07 310.62 516.6C318.07 514.58 334.3 527.94 339.28 532.18V748.6V748.59Z" fill="#DA0148"/>
<path d="M0.329956 591.99C18.29 582.72 28.14 581.21 33.9 581.96C34.37 582.02 35.51 582.19 37.12 582.2C39.02 582.21 49.71 582.28 56.28 573.96C57.05 572.99 62.65 565.68 60.58 558.02C58.83 551.53 53.47 551.79 48.94 542.98C47.48 540.15 45.03 535.38 45.72 529.73C46.73 521.38 53.42 520.55 54.5 512.72C55.21 507.56 52.93 503.38 49.13 496.42C43.92 486.88 40.91 487.52 38.2 479.94C35.43 472.2 36.26 465.04 36.41 463.82C36.99 459.23 37.99 459.15 38.56 454.51C39.37 447.84 37.56 445.81 37.13 438.57C36.7 431.43 38.37 431.77 38.92 420.66C39.33 412.34 39.54 408.18 37.67 404.18C36.18 400.99 34.11 400.77 24.06 392.9C20.27 389.93 20.79 389.84 17.61 387.71C14.21 385.43 8.78996 382.74 0.419956 381.83L0.329956 592.01V591.99Z" fill="#DA0148"/>
<path d="M68.56 389.89C74.14 387.88 80.22 386.77 109.4 388.46C130.81 389.7 127.81 390.32 133.94 390.07C147.15 389.54 154.07 386.96 162.24 390.97C163.97 391.82 166.81 393.48 172.27 395.98C177.55 398.4 178.33 398.42 181.58 399.92C188.75 403.23 189.41 405.21 198.95 411.02C206.29 415.49 205.99 414.38 210.41 417.47C212.15 418.68 215.98 421.49 223.84 430.19C234.37 441.82 232.63 442.44 238.71 447.56C242.68 450.91 247.18 453.81 253.58 457.95C259.44 461.73 259.44 461.42 261.64 462.96C270.74 469.36 280.64 481.78 279.01 493.59C278.82 494.99 278.1 500.23 274.53 502.01C272 503.27 269.28 502.17 266.83 501.47C266.83 501.47 263.34 500.48 248.2 501.47C213.8 503.71 202.53 519.74 202.53 519.74C196.24 529.93 198.54 543.33 190.71 557.17C189.77 558.83 188.14 561.46 185.16 562.54C182.72 563.43 179.44 563.26 170.47 558.42C162.38 554.05 162.16 552.63 158.11 550.72C147.54 545.72 142.98 552.52 133.93 548.93C129.09 547.01 123.71 538.45 112.97 521.35C107.89 513.25 106.48 510.41 102.22 507.02C95.92 502.01 88.91 500.19 83.95 498.96C72.79 496.18 71.76 498.94 64.79 496.27C57.42 493.45 49.34 486.84 46.34 478C45.03 474.13 46.23 474.36 44.01 459.01C43.05 452.33 42.74 451.72 42.4 448.08C42.2 445.99 41.64 439.04 42.76 429.63C44.33 416.48 45.36 407.82 51.54 400.44C56.87 394.08 63.48 391.7 68.55 389.87L68.56 389.89Z" fill="#DA0148"/>
<path d="M112.9 1619.64C117.75 1617.69 117.67 1613.12 121.14 1609.79C129.5 1601.74 153.73 1605.48 165.92 1620.54C171.79 1627.79 177.67 1641.12 173.08 1650.09C171.11 1653.93 167.76 1655.94 164.12 1663.88C162.14 1668.21 161.11 1670.54 161.43 1673.73C162.06 1679.98 167.48 1685.5 173.07 1687.16C175.96 1688.02 176.17 1687.04 178.8 1688.06C183.73 1689.96 183.86 1693.73 188.83 1697.19C192.57 1699.79 196.36 1700.35 198.14 1700.59C200.8 1700.95 206.86 1701.78 211.57 1698.26C217.16 1694.09 217.72 1686.17 218.02 1681.96C218.37 1676.99 217.24 1676.4 218.02 1672.65C219.28 1666.59 223.21 1663.42 225.54 1660.47C227.77 1657.66 230.2 1652.96 229.48 1633.96C228.44 1606.22 227.91 1592.35 219.09 1579.51C212.97 1570.6 204.58 1564.09 196.52 1557.84C195.03 1556.68 189.02 1552.17 177 1543.15C172.37 1539.68 170.06 1537.94 169.84 1537.78C154.81 1526.67 135.04 1520.91 122.56 1517.36C101.05 1511.25 92.92 1511.83 87.1 1513.06C77.97 1514.99 74.75 1518.43 73.49 1520.05C68.11 1526.94 70.2 1536.67 71.52 1542.44C76.32 1563.39 90.67 1570.12 94.98 1588.83C97.11 1598.08 97.49 1601.37 97.49 1601.37C98.53 1610.53 97.18 1613.66 99.82 1616.77C102.78 1620.26 108.7 1621.32 112.89 1619.64H112.9Z" fill="#DA0148"/>
<path d="M0.420044 1351.36C7.67004 1346.9 14 1345.52 17.91 1345.02C36.61 1342.64 58.59 1352.99 66.63 1369.14C70.16 1376.23 70.04 1382.51 74.75 1383.95C77.73 1384.86 80.18 1383.08 91.71 1376.79C100.24 1372.13 104.5 1369.8 106.04 1369.39C116.27 1366.61 125.99 1370.32 132.31 1372.73C140.09 1375.7 139 1376.99 148.55 1381.09C159.23 1385.67 166.26 1388.69 173.39 1385.87C180.71 1382.97 183.74 1375.66 184.14 1374.65C187.33 1366.6 184.12 1359.02 180.32 1350.05C177.39 1343.14 171.83 1330.44 158.59 1320.44C150.65 1314.44 142.92 1311.66 132.8 1308.02C120.11 1303.46 119.05 1305.09 112.02 1301.33C103.96 1297.03 99.33 1291.62 90.05 1280.79C83.88 1273.59 79.89 1268.93 76.2 1261.69C71.05 1251.58 71.58 1246.41 69.04 1238.53C63 1219.82 43.91 1199 23.19 1199.37C19.05 1199.44 10.53 1200.44 0.500044 1208.44L0.440044 1351.38L0.420044 1351.36Z" fill="#DA0148"/>
<path d="M0.509956 975.61C2.64996 970.83 9.80996 956.51 26 949.1C31.74 946.47 40.34 942.54 49.64 945.04C55.47 946.61 69.08 952.73 73.28 957.46C73.62 957.85 74.68 959.1 76.15 959.13C77.03 959.15 78.14 958.73 80.81 955.67C83.68 952.37 82.99 952.16 84.39 951.01C87.43 948.52 92.08 948.33 93.58 948.26C95.43 948.18 96.17 948.41 97.04 947.78C98.65 946.62 98.97 943.82 98.47 941.69C97.56 937.81 94.29 937.78 90.83 933.09C89.73 931.6 87.06 927.98 87.25 923.66C87.46 918.8 91.17 915.36 93.82 912.91C99.99 907.2 103.76 908.51 107.55 903.24C108.15 902.41 111.6 897.61 110.18 893.09C109.2 889.96 106.44 888.75 102.9 886.52C100.19 884.82 94.09 878.66 81.89 866.34C78.12 862.53 76.3 860.58 75.2 857.27C73.5 852.11 74.86 847.52 75.32 845.57C79.04 829.86 66.56 809 57.05 798.53C52.56 793.59 47.06 787.69 38.54 786.47C33.86 785.8 30.18 786.82 24.93 788.26C13.36 791.44 6.38996 797.71 4.74996 799.25C2.73996 801.12 1.26996 802.85 0.329956 804.03L0.509956 975.61Z" fill="#DA0148"/>
<path d="M97.1 97.53C93.56 99.33 92.43 103.7 92.09 105.05C91.34 107.96 91.04 113.37 99.08 124.57C109.09 138.52 118.39 142.44 127.56 156.45C129.5 159.41 130.69 161.69 131.5 164.51C133.9 172.83 130.18 176.02 132.04 182.6C132.92 185.71 136.57 189.33 143.86 196.57C152.15 204.8 153.53 204.7 155.68 208.75C157.55 212.27 158.24 216.05 159.62 223.62C161.48 233.81 160.49 234.6 162.13 236.69C166.93 242.82 181 243.11 189.53 237.23C194.65 233.69 194.18 230.42 199.56 228.1C202.47 226.85 205.37 226.61 215.5 227.74C224.14 228.7 228.43 229.59 231.98 230.07C238.93 231.01 250.34 232.54 260.99 227.56C271.45 222.67 281.11 211.55 281.59 199.26C281.76 194.83 280.69 191.42 279.44 187.44C276.05 176.67 269.99 169.45 266.37 165.41C259.71 157.99 244.53 142.63 208.88 119.2C203.04 115.37 184.26 103.16 173.24 101.83C172.38 101.73 163.69 100.73 156.94 98.96C155.3 98.53 153.65 98.14 152.01 97.71C147.2 96.44 146.37 96.09 144.58 96.01C141.6 95.88 141.61 96.74 138.76 96.73C135.59 96.71 135.18 95.63 130.16 94.31C127.02 93.48 124.9 93.31 120.85 92.97C117.73 92.71 115.94 92.75 114.04 93.6C112.55 94.27 112.15 94.92 111.08 95.66C106.44 98.9 101.61 95.25 97.11 97.54L97.1 97.53Z" fill="#DA0148"/>
<path d="M46.4699 171.86C44.5399 174.05 43.3599 175.39 43.1299 177.47C42.7899 180.5 44.7999 182.02 47.5499 188.34C49.3399 192.44 48.6599 192.21 49.6999 194.07C52.1099 198.4 57.7999 203.35 65.2199 203.26C66.1399 203.25 73.3899 203.05 77.8799 197.41C83.4699 190.38 80.6499 180.09 76.5699 174.25C72.4899 168.41 64.4499 163.14 56.7499 164.94C51.4999 166.16 47.8199 170.34 46.4799 171.87L46.4699 171.86Z" fill="#DA0148"/>
<path d="M146.21 1788.9C152.23 1788.21 202.87 1782.15 210.69 1769.56C211.72 1767.91 214.9 1762.78 213.02 1759.35C211.82 1757.17 209.47 1757.29 206.57 1753.98C205.72 1753.01 203.97 1751 203.35 1748.25C202.55 1744.73 204.22 1742.75 206.57 1735.35C208.06 1730.66 208.81 1728.32 208.72 1726.75C208.37 1720.49 200.98 1716.41 195.11 1712.78C169.24 1696.78 170.43 1687.97 153.2 1682.69C150.15 1681.76 144.76 1680.39 136.36 1677.32C129.54 1674.82 124.25 1672.48 123.11 1671.95C109.54 1665.58 106.09 1643.87 96.6 1618.94C89.76 1600.98 83.38 1584.19 68.3 1568.43C61.35 1561.17 49.19 1548.79 29.61 1545.15C17.41 1542.88 7.06995 1544.87 0.949951 1546.58V1788.19L146.2 1788.91L146.21 1788.9Z" fill="#FD1700"/>
<path d="M192.03 1787.82C192.03 1787.82 218.98 1780.66 222.08 1766.33C224.17 1756.66 225.61 1752.43 228.31 1750.41C229.86 1749.24 231.27 1749.11 233.29 1748.66C242.12 1746.69 252.46 1744.38 256.66 1737.91C259.25 1733.92 259.46 1728.4 257.61 1724.3C255.2 1718.95 249.62 1716.71 247.12 1715.7C243.22 1714.13 242.37 1715 239.73 1713.79C233.06 1710.73 230.99 1701.78 229.95 1697.31C229.2 1694.08 226.29 1682.64 231.86 1672.95C233.41 1670.26 234.11 1670.31 235.56 1667.46C239.26 1660.17 238.22 1652.85 237.89 1650.09C235.17 1627.67 243.7 1617.48 237 1596.54C233.84 1586.69 229.11 1580.54 219.65 1568.24C202.31 1545.71 185.31 1532.42 185.31 1532.42C178.36 1526.99 174.15 1524.61 172.07 1518.63C169.65 1511.64 173.02 1508.03 173.14 1493.38C173.21 1485.81 173.25 1480.72 171.17 1474.93C167.11 1463.61 157.63 1457.12 153.46 1454.69C138.6 1446.02 131.64 1454.18 114.65 1446.81C111.17 1445.3 97.4099 1438.86 89.9699 1424.06C85.1199 1414.42 80.6499 1396.63 89.4299 1387.88C94.6199 1382.72 102.52 1382.6 108.57 1382.51C115.09 1382.41 120.87 1384.35 132.18 1388.24C144.82 1392.58 151.71 1395.01 159.9 1400.24C167.1 1404.84 169.49 1407.91 174.92 1412.42C192.51 1427.04 211.95 1431.94 215.7 1432.84C220.69 1434.03 246.76 1440.26 268.64 1430.51C271.73 1429.13 278.05 1425.96 287.78 1422.99C294.41 1420.96 300.71 1419.04 306.92 1418.87C321.02 1418.49 332.65 1427.22 339.29 1433.56V1787.83H192.03V1787.82Z" fill="#FD1700"/>
<path d="M339.26 950.29C338.54 952.93 335.65 964.42 325.66 968.24C322.63 969.4 320.12 969.4 315.09 969.4C308.01 969.4 298.18 969.4 294.31 963.67C292.32 960.73 293.5 958.64 290.73 955.97C288.22 953.56 286.31 954.33 283.57 951.85C281.41 949.89 281.15 948.09 279.45 944.33C279.45 944.33 277.31 939.6 273.18 933.94C267.41 926.03 255.37 924.76 237.18 922.84C227.77 921.85 227.6 922.57 221.24 921.41C210.45 919.44 206.01 916.45 197.24 913.35C184.58 908.87 173.95 908.06 161.06 907.08C142.94 905.7 138.35 908 131.15 903.14C125.41 899.27 118.9 891.44 120.4 885.05C121.27 881.35 124.45 879.75 125.41 874.12C125.99 870.72 124.57 869.88 125.05 866.42C125.69 861.78 128.21 860.21 129.65 857.05C132.76 850.19 128.66 840.5 123.68 834.84C117.85 828.22 109.07 825.13 101.71 826.12C98.53 826.55 91.33 827.52 87.02 832.21C86.48 832.8 85.61 833.85 84.15 834.15C81.01 834.79 76.99 831.52 75.67 828.36C73.02 822.03 79.95 813.22 84.83 808.84C92.4 802.05 101.48 800.14 113.49 798.9C146.68 795.47 177.14 799.73 180.65 800.24C185.8 800.99 199.14 803.08 211.28 802.27C216.02 801.95 218.62 801.33 227.28 800.84C230.65 800.65 232.93 800.59 236.12 799.77C240.73 798.57 243.38 796.76 246.15 795.23C254.08 790.86 255.43 792.99 269.43 787.71C275.88 785.28 279.18 784.01 282.56 781.38C285.53 779.08 287.85 776.48 291.99 771.83C297.36 765.8 296.4 766.03 298.44 764.31C304.34 759.33 311.38 758.29 315.87 757.62C319.49 757.09 322.27 757.11 325.3 757.14C331.08 757.2 335.87 757.84 339.26 758.45L339.24 950.29H339.26Z" fill="#FD1700"/>
<path d="M151.43 249.11C164.26 249.74 173.14 252.86 175.31 253.65C182.18 256.15 188.27 258.36 193.94 263.68C202.99 272.17 199.67 277.99 209.94 290.43C214.34 295.76 218.92 301.31 226.66 303.56C232.42 305.24 235.5 303.8 244.57 304.75C251.57 305.49 256.6 307.14 261.29 308.57C272.1 311.88 277.8 313.7 282.66 319.08C284.37 320.97 287.14 324.12 287.79 328.87C288.53 334.29 286.08 338.63 284.8 340.81C277.83 352.73 262.85 356.11 257.81 357.17C254.87 357.79 251.67 358.24 229.75 357.05C212.37 356.11 207.16 355.44 195.84 355.62C182.79 355.83 176.85 356.92 171 359.8C166.83 361.86 162.17 364.15 158.46 369.11C156.21 372.13 155.72 374.23 152.73 376.99C149.03 380.4 144.95 381.62 143.18 382.12C135.23 384.39 129.9 381.47 118.46 379.25C106.72 376.97 98.34 377.34 87.3 377.82C78.22 378.21 73.61 379.18 69.27 382C64.84 384.88 65.21 386.76 60.79 389.04C54.87 392.1 48.9 391.45 42.04 390.71C36.02 390.06 33.01 389.73 30.7 387.49C27.23 384.12 27.22 378.61 27.83 373.04C29.25 360.27 31.62 338.9 48.61 325.04C54.34 320.36 58.57 319.13 70.58 309.4C76.85 304.32 79.18 301.84 81.09 299.37C87.16 291.51 87.21 285.99 90.28 279.07C97.53 262.74 114.2 255.23 117.74 253.64C130.14 248.05 141.3 248.6 151.41 249.1L151.43 249.11Z" fill="#FD1700"/>
<path d="M157.22 1098.54C152.2 1099.97 147.85 1102.12 144.09 1105.58C141.84 1107.65 137.66 1111.5 136.45 1117.88C136.18 1119.3 134.96 1126.57 139.08 1132.09C145.18 1140.26 155.56 1134.63 169.65 1143.43C174 1146.15 177.26 1149.34 181.59 1153.58C190.58 1162.38 193.13 1167.89 197.95 1167.55C201.41 1167.31 204.85 1164.13 204.88 1161.46C204.9 1159.36 202.8 1158.6 201.06 1155.97C198.14 1151.54 199.1 1146.13 199.75 1142.48C201.26 1133.99 205.36 1133.05 207.87 1125.05C208.57 1122.83 211.09 1114.78 208.35 1108.33C202.18 1093.85 172.25 1094.26 157.25 1098.54H157.22Z" fill="#FD1700"/>
<path d="M99.75 951.95C97.55 953.94 95.53 953.12 92.76 954.1C87.75 955.87 85.47 961.69 83.8 965.92C82.4 969.49 81.3 972.28 81.74 975.95C82.68 983.82 89.83 988.45 92.93 990.46C95.92 992.39 98.66 994.17 102.6 994.22C107.97 994.29 113.96 991.16 116.3 986.34C118.17 982.49 116.56 979.95 119.43 975.24C121.06 972.56 121.89 972.87 123.1 970.76C126.12 965.52 124.11 958.22 121.49 953.75C120.81 952.59 115.85 944.12 109.13 944.71C107.29 944.87 104.54 945.78 102.59 947.84C101.02 949.5 101.25 950.58 99.72 951.96L99.75 951.95Z" fill="#FD1700"/>
<path d="M339.28 189.17C337.02 187.6 333.07 185.28 327.66 184.16C325.68 183.75 318.46 182.44 311.18 185.12C305.02 187.39 299.83 194.54 289.69 208.76C279.97 222.4 280.79 222.82 277.27 226.19C274.98 228.38 265.42 237.55 251.24 239.56C240.86 241.04 239.68 237.01 221.15 237.17C208.45 237.28 204.05 239.21 201.57 242.42C199.61 244.96 198.06 249.31 199.42 252.93C200.25 255.12 201.71 255.9 203.72 257.71C209.31 262.73 208.92 266.57 213.27 272.52C215.9 276.11 218.92 278.25 224.97 282.55C225.99 283.27 236.38 290.56 248.85 294.97C250.13 295.42 253.1 296.43 259.12 298.55C263.52 300.1 265.72 300.88 266.52 301.18C270.92 302.83 283.96 307.73 292.31 318.85C294.65 321.97 294.88 323.25 297.09 324.58C301.9 327.47 309.34 326.53 314.28 322.91C317.13 320.82 316.92 319.48 318.82 318.61C321.92 317.19 327.66 318.43 339.28 330.07V189.17Z" fill="#F84595"/>
<path d="M0.420044 372.4C2.77004 374.1 7.04004 376.66 12.86 377.41C16.13 377.83 19.48 378.27 22.17 376.34C25.2 374.17 22.77 371.17 25.39 362.91C26.95 358.02 28.7 356 28.26 351.81C28.02 349.54 27.4 349.13 27.01 346.97C26.06 341.77 28.36 337.24 29.7 334.61C40.26 313.84 60.51 306.67 60.51 306.67C67.97 304.03 73.61 303.98 77.88 298.43C79.04 296.92 79.95 295.21 81.82 288.04C86.32 270.81 84 269.47 87.19 264.4C91.82 257.05 100.79 253.35 105.28 251.5C109.46 249.78 113.43 247.58 117.64 245.95C121.19 244.58 122.72 244.17 123.55 242.55C125.34 239.04 121.79 233.85 119.79 230.91C118.38 228.84 116.83 226.62 113.97 225C111.08 223.36 109.46 223.8 106.45 222.94C100.53 221.25 99.98 217.59 94.9 214.61C90.01 211.74 87.35 213.26 77.62 212.19C70.16 211.37 63.62 210.65 57.83 207.44C50.47 203.36 51.81 199.4 38.67 183.08C30.32 172.71 26.5 170.24 22.64 168.84C20.57 168.09 14.45 165.97 7.33004 168.12C4.24004 169.06 1.92004 170.51 0.440044 171.61V372.39L0.420044 372.4Z" fill="#F84595"/>
<path d="M125.01 1631.23C126.02 1625.09 127.74 1622.88 128.32 1622.19C128.96 1621.42 131.49 1618.47 135.66 1617.71C136.08 1617.63 137.35 1617.43 140.23 1617.8C144.53 1618.36 147.96 1618.8 150.53 1620.84C154.07 1623.65 154.46 1628.29 154.92 1633.74C155.38 1639.17 155.76 1643.64 152.77 1647.89C148.75 1653.61 141.9 1654.28 141.13 1654.34C134.35 1654.89 127.85 1650.99 125.19 1645.56C123.29 1641.68 123.88 1638.11 125.01 1631.23Z" fill="#F84595"/>
<path d="M222.41 1132.19C216.99 1134.48 214.06 1138.28 213.28 1139.35C212.48 1140.45 209.45 1144.7 209.25 1150.1C208.87 1160.23 218.63 1170.2 229.4 1171.95C231.69 1172.32 239.03 1173.14 245.43 1168.37C253.63 1162.26 253.59 1151.98 253.58 1150.19C253.57 1147.92 253.55 1143.3 250.54 1138.91C245.95 1132.22 237.93 1131.16 234.87 1130.76C232.63 1130.47 227.86 1129.9 222.42 1132.19H222.41Z" fill="#F84595"/>
<path d="M96.5301 834.72C93.4201 837.93 90.4601 836.94 87.4901 839.11C82.8201 842.51 82.9701 850.1 83.0101 852.01C83.1601 859.64 87.6001 864.85 91.7001 869.65C96.9601 875.83 103.23 883.18 110.77 882.1C116.94 881.21 122.58 874.88 121.7 871.17C121.18 869 118.73 868.98 118.21 866.78C117.32 863 124.05 860.83 126.09 855.32C128.95 847.6 121.43 836.56 113.1 831.86C112.13 831.31 103.97 826.82 99.8501 829.89C98.1701 831.14 98.6701 832.53 96.5401 834.73L96.5301 834.72Z" fill="#F84595"/>
</g>
<defs>
<clipPath id="clip0_100_137">
<rect width="339.82" height="1788.9" fill="white"/>
</clipPath>
</defs>
</svg>
